<svg width="193" height="178" viewBox="0 0 193 178" fill="none" xmlns="http://www.w3.org/2000/svg">
<path d="M89 177.5L0 90L44.5 45L177.5 177.5H89Z" fill="#FB2359"/>
<rect y="133" width="44" height="44" fill="#FB2359"/>
<path d="M128 128.172C136.536 128.172 144.988 126.516 152.874 123.3C160.761 120.084 167.926 115.37 173.962 109.427C179.998 103.484 184.786 96.4285 188.052 88.6636C191.319 80.8988 193 72.5765 193 64.1719C193 55.7673 191.319 47.445 188.052 39.6801C184.786 31.9153 179.998 24.86 173.962 18.917C167.926 12.9741 160.761 8.25988 152.874 5.04358C144.988 1.82728 136.536 0.171874 128 0.171875L128 64.1719V128.172Z" fill="#FB2359"/>
<path d="M0 0H85L128 45H0V0Z" fill="#FB2359"/>
</svg>
